<svg t="1710068143133" class="icon" viewBox="0 0 1024 1024" version="1.1" xmlns="http://www.w3.org/2000/svg" p-id="5326" width="200" height="200"><path d="M859.1 114.4c-1.3 0-9.9-0.3-15.3-6.9-2.5-3.1-5.1-8.7-3.2-17.8 2.1-10 8.8-16.4 18.7-18 2-0.3 4.3-0.4 6.7-0.3 0-0.1 0-0.1-0.1-0.2-1.2-4.1-3.5-14.2 1.8-20.5 5.2-6.3 10.9-7.4 14.8-7.2 5.7 0.3 10.9 3.5 14.7 6.9 2.5-4.6 6.4-9.7 12.1-12.8 6-3.2 13-3.4 20.3-0.6 10.5 4 14.4 10.7 15.8 15.6 1.6 5.5 0.9 11.2-0.7 16.1 7.2-1.7 15.4-2.2 21.9 1.6 4.4 2.6 9.6 8.4 9.6 20.7 0 19.2-14.6 23.4-20.3 23.4h-96.8c0.1 0 0.1 0 0 0z m0.1-12.4H956c2.3-0.1 7.9-1.3 7.9-11 0-5.2-1.2-8.6-3.6-10-5.9-3.5-19.6 1.5-25.3 4.6l-7.9-9.2c2.5-3.3 8.4-13.4 6.3-20.4-0.9-3.2-3.7-5.7-8.3-7.5-3.9-1.5-7.2-1.5-10.1 0-5.8 3-9 11.7-9.8 14.8l-11.1 2c-2.1-3-7.8-9.4-12.3-9.5-0.7-0.1-2.3-0.1-4.7 2.7-0.4 0.6-0.9 3.3 0.2 7.7 1 4.1 2.7 7 3.8 8.3 2.4 1 4.2 2.3 5 3.5l-0.5 7-7.6 1.9c-1.2-0.4-2.3-0.9-3.2-1.6-4.2-1.3-12-2.9-17-0.5-1.7 0.8-4.1 2.5-5.2 7.4-0.5 2.4-0.8 5.5 0.7 7.4 1.8 2.3 5.7 2.4 5.9 2.4zM755.5 401h-71.3l-2.9-0.7c-6-3.3-16.5-13-12.7-26.5 1.8-6.6 5.8-11.6 11.5-14.3 5.5-2.6 11.8-2.9 17.2-2.2-0.6-3.4-0.5-7 0.3-10.3 2.4-9.2 9.9-14.5 20.7-14.5h0.2c8.5 0 15.4 2.8 20.4 8.3 5.2 5.7 7.2 13.2 7.9 18.9 5.7-1.1 13.2-1.5 18.4 2.2 2.7 1.9 5.8 5.4 5.8 12.1 0 23.4-12.8 26.7-14.2 27h-1.3zM686 388.6h68.4c0.8-0.6 4.2-3.7 4.2-14.7 0-1-0.2-1.6-0.5-1.9-2.2-1.5-9.8-0.5-15.2 1.5l-8.3-6.4c0.3-3.2-0.1-12.8-4.9-18.1-2.6-2.9-6.5-4.3-11.4-4.2-6.3 0-7.9 2.7-8.6 4.8-1.5 4.7 0.8 10.6 2.3 11.7l-5.5 11.1c-3.7-1.5-14.7-4.9-21.2-1.7-2.4 1.2-4 3.2-4.9 6.4-1.4 5.8 3.3 9.9 5.6 11.5z" fill="#3EC69F" p-id="5327"></path><path d="M994.9 649c0-2.8-2.8-5.5-5.5-5.5V605c0-3.3-2.2-5.5-5.5-5.5h-27.5v-11h22c2.2 0 4.4-1.1 5-3.3 1.1-2.2 0.6-4.4-1.1-6.1l-57.8-57.8c-2.2-2.2-5.5-2.2-7.7 0l-57.9 57.8c-1.7 1.7-2.2 3.9-1.1 6.1 1.1 2.2 2.8 3.3 5 3.3h16.5v11h-22c-3.3 0-5.5 2.2-5.5 5.5v38.6h-5.5c-2.8 0-5.5 2.2-5.5 5l-2.2 44.6H576.2v11h261.7l-13.8 269.4 5.5 0.5H791V803.3c0-36.4-29.7-66.1-66.1-66.1-36.4 0-66.1 29.7-66.1 66.1v170.8h-88.1v11h429.7c1.7 0 2.8-0.6 3.9-1.7s1.7-2.8 1.7-3.9L994.9 649zM719.4 830.8v22h-16.5v-22h16.5z m11 0h22v22h-22v-22z m33.1 0H780v22h-16.5v-22z m-93.7-27.5c0-30.3 24.8-55.1 55.1-55.1S780 773 780 803.3v16.5H669.8v-16.5z m0 27.5h22v22h-22v-22z m0 33.1H780v33H669.8v-33z m0 44.1H780v66.1H669.8V908z m308.5-264.5h-11v-33.1h11v33.1z m-22-33v33.1h-71.6v-33.1h71.6z m-80.4-33.1l44.6-44.6 44.6 44.6h-89.2z m14.3 11h55.1v11h-55.1v-11z m-27.5 22.1h11v33.1h-11v-33.1z m-27.6 363.6l16-319.5h132.8l10.5 319.5H835.1z m0 0" fill="#ED70A3" p-id="5328"></path><path d="M967.3 852.9h-22V715.1c0-3.3-2.2-5.5-5.5-5.5h-44.1c-3.3 0-5.5 2.2-5.5 5.5v137.7h-22c-3.3 0-5.5 2.2-5.5 5.5v22c0 3.3 2.2 5.5 5.5 5.5h8.8l36.9 36.9c1.1 1.1 2.2 1.7 3.9 1.7 1.7 0 2.8-0.6 3.9-1.7l31.4-36.9h13.8c3.3 0 5.5-2.2 5.5-5.5v-22c0.4-3.2-1.8-5.4-5.1-5.4z m-66.1-132.3h33.1v132.2h-33.1V720.6z m16 190.1l-24.8-24.8h46.3l-21.5 24.8z m44.6-35.8h-88.1v-11h88.1v11z m0 0M267.7 357h132.2c3.3 0 5.5-2.2 5.5-5.5v-44.1c0-3.3-2.2-5.5-5.5-5.5H267.7c-3.3 0-5.5 2.2-5.5 5.5v44.1c0 3.3 2.2 5.5 5.5 5.5z m5.5-44h121.2v33H273.2v-33z m0 0" fill="#ED70A3" p-id="5329"></path><path d="M650.6 842.4c-1.7-1.1-3.9-1.1-5.5 0 0 0-27 16-47.9 21.5-15.4 3.9-27.5-4.4-32-8.3v-19.3c0-3.3-2.2-5.5-5.5-5.5h-5.5v-55.1h39.7c28.1-6.1 38.6-24.2 41.9-38.6 3.9-14.9 1.1-28.1 0.6-28.6-0.6-1.7-1.7-3.3-2.8-3.9-1.6-0.6-3.3-0.6-5 0l-32 16h-12.7l-7.7-7.7V682c0-3.3-2.2-5.5-5.5-5.5h-16.5V638h39.7c28.1-6.1 38.6-24.2 41.9-38.6 3.9-14.9 1.1-28.1 0.6-28.6-0.6-1.7-1.7-3.3-2.8-3.9-1.6-0.6-3.3-0.6-5 0l-32 16h-12.7l-7.7-7.7v-30.9c0-3.3-2.2-5.5-5.5-5.5h-16.5v-38.6h39.7c28.1-6.1 38.6-24.2 41.9-38.6 3.9-14.9 1.1-28.1 0.6-28.6-0.6-1.7-1.7-3.3-2.8-3.9-1.6-0.6-3.3-0.6-5 0l-32 16h-12.7l-7.7-7.7v-30.9c0-3.3-2.2-5.5-5.5-5.5h-16.5v-33h1.1c30.9-6.1 36.9-36.4 37.5-37.5 0.5-2.2-0.6-3.9-1.7-5.5-1.7-1.1-3.9-1.7-5.5-1.1-7.2 2.8-28.1 9.4-40.2 5.5-13.2-4.4-18.2-23.7-18.2-23.7-0.5-2.2-2.8-4.4-5.5-4.4H444v-11h1.7c58.9-17.6 53.4-66.1 53.4-66.7 0-2.2-1.7-3.9-3.3-4.4-1.7-0.6-3.9-0.6-5.5 0.5l-20.4 15.4h-29.8l-12.7-8.3v-24.2c0-3.3-2.2-5.5-5.5-5.5h-63.4c5.5-6.1 8.3-13.8 8.3-22 0-14.3-8.8-26.4-21.5-30.9 6.1-3.9 10.5-11 10.5-18.7 0-10.5-7.2-18.7-16.5-21.5V37.5h-11v66.7c-9.4 2.2-16.5 11-16.5 21.5 0 7.7 4.4 14.9 10.5 18.7-12.7 5-21.5 16.5-21.5 30.9 0 8.3 3.3 16 8.3 22h-63.4c-3.3 0-5.5 2.2-5.5 5.5v24.8l-12.7 8.3h-29.7l-20.4-15.4c-1.7-1.1-3.9-1.7-5.5-0.6-1.7 0.6-3.3 2.2-3.3 4.4 0 0.5-5.5 49 53.4 66.7h1.7v11h-77.1c-2.8 0-5 1.7-5.5 4.4 0 0-5 19.3-18.2 23.7-12.1 3.9-33.1-2.8-40.2-5.5-1.7-0.6-3.9-0.6-5.5 1.1-1.7 1.1-2.2 3.3-1.7 5.5 0 1.1 6.6 31.4 37.5 37.5h1.1v33.1H97.5c-3.3 0-5.5 2.2-5.5 5.5V438l-7.7 7.7H71l-32-16c-1.7-0.6-3.3-0.6-5 0-1.7 0.5-2.8 2.2-2.8 3.9 0 0.6-2.8 13.8 0.6 28.7 3.3 14.3 13.8 32 41.9 38.6h39.7v38.6H96.9c-3.3 0-5.5 2.2-5.5 5.5v30.9l-7.7 7.7H70.5l-32-16c-1.7-0.6-3.3-0.6-5 0-1.7 0.5-2.8 2.2-2.8 3.9 0 0.6-2.8 13.8 0.5 28.7 3.3 14.3 13.8 32 41.9 38.6h39.7v38.6H96.3c-3.3 0-5.5 2.2-5.5 5.5v30.9l-7.7 7.7H69.9l-32-16c-1.7-0.6-3.3-0.6-5 0-1.7 0.5-2.8 2.2-2.8 3.9 0 0.6-2.8 13.8 0.6 28.6 3.3 14.3 13.8 32 41.9 38.6h39.7v55.1h-5.5c-3.3 0-5.5 2.2-5.5 5.5V857c-4.4 3.3-16.5 12.1-32 8.3-20.9-5.5-47.9-21.5-47.9-21.5-1.7-1.1-3.9-1.1-5.5 0-0.6 0-1.7 1.7-1.7 3.9 0 0.5 0.6 66.1 71.6 66.1v66.1c0 3.3 2.2 5.5 5.5 5.5h484.8c3.3 0 5.5-2.2 5.5-5.5v-66.1c71.1 0 71.6-65.6 71.6-66.1 0.1-2.6-1-4.2-2.6-5.3z m-107.5-11.6h-27.5v-55.1h27.5v55.1z m-17.6 71.6c-3.3-20.4-7.7-48.5-9.4-60.6h6.6c4.4 11.6 16.5 43.5 34.2 60.6h-31.4z m-301.9 0h-27.5v-30.3c7.2 3.3 16 6.6 26.4 8.3h1.1v22z m-112.9 0c17.6-17.1 29.8-49 34.2-60.6h6.6c-1.7 12.1-6.1 40.2-9.4 60.6h-31.4zM163 638h60.6v38.6H163V638z m0-137.7h60.6v38.6H163v-38.6zM145.9 357c13.2-13.8 23.1-33.6 26.4-44.1h17.1c-2.2 15.4-7.2 36.4-12.7 44.1h-30.8z m77.7 11.1v33H163v-33h60.6z m220.4 0h60.6v33H444v-33z m46.8-11.1c-5.5-7.7-10.5-28.7-12.7-44.1h17.1c3.3 10.5 13.2 30.3 26.4 44.1h-30.8zM504 830.8c0.6-2.2 0.6-4.4 0.6-6.1v6.1h-0.6z m0.6-11c0-0.5 0-0.5 0 0 0-2.2-1.1-3.9-2.8-4.4-1.7-1.1-3.3-1.1-4.4-0.5-0.6 0-32.5 10.5-47.9 10.5-2.2 0-3.9 0-5.5-0.5v-49h60.6v43.9z m-48.5 46.3l0.6-2.2C411.5 849 411 799.4 411 797.2h5.5v22c0 1.7 0.5 2.8 1.7 3.9 0.5 0.5 12.7 12.7 31.4 12.7 12.7 0 33.1-5.5 44.1-8.8-1.2 10.4-7.9 29.7-37.6 39.1z m-116.8-68.3h16.5v71.6h-16.5v-71.6z m27.5 0h16.5v71.6h-16.5v-71.6z m-33-11h-88.1c-3.3 0-5.5 2.2-5.5 5.5v24.8c-1.1 1.1-3.3 2.2-5.5 3.9v-45.2H433V821c-2.2-1.1-4.4-2.8-5.5-3.9v-24.8c0-3.3-2.2-5.5-5.5-5.5h-88.2z m-49.6 11h16.5v71.6h-16.5v-71.6z m27.6 0h16.5v71.6h-16.5v-71.6z m-100.3 68.3c-29.7-9.4-36.4-28.6-37.5-39.1 11 3.3 31.4 8.8 44.1 8.8 18.7 0 30.9-12.1 31.4-12.7 1.1-1.1 1.7-2.2 1.7-3.9v-22h5.5c0 2.2-0.5 51.2-45.7 66.7l0.5 2.2z m23.1-365.8h198.3v38.6H234.6v-38.6zM427.4 627l5-2.2c-16-32-16-74.4-16-74.9h22l-5.5 1.6c0.6 2.2 15.4 51.2 36.4 75.5h-41.9z m-137.7-77.1h38.6V627h-43.5c5.5-15.4 9.9-66.1 10.5-76.6l-5.6-0.5z m-11 77.1h-32.5c16-33.6 16-75.5 16-77.1h22c-2.2 25.3-6.6 67.2-10.5 74.9l5 2.2z m60.6-77.1h38.6l-5.5 0.5c1.1 10.5 5.5 61.1 10.5 76.6h-43.5v-77.1z m44.1 0h22c0 1.6 0 43.5 16 77.1h-32.5l5-2.2c-3.9-7.7-8.3-49.6-10.5-74.9z m-132.2 0c0 0.5 0 43-16 74.9l5 2.2h-42.4c20.9-24.2 35.8-73.3 36.4-75.5l-5.5-1.6h22.5zM234.6 638h198.3v38.6H234.6V638z m192.8 126.7l5-2.2c-16-32-16-74.4-16-74.9h22l-5.5 1.7c0.6 2.2 15.4 51.2 36.4 75.5h-41.9z m-137.7-77.1h38.6v77.1h-43.5c5.5-15.4 9.9-66.1 10.5-76.6l-5.6-0.5z m-11 77.1h-32.5c16-33.6 16-75.5 16-77.1h22c-2.2 25.3-6.6 67.2-10.5 74.9l5 2.2z m60.6-77.1h38.6l-5.5 0.6c1.1 10.5 5.5 61.1 10.5 76.6h-43.5v-77.2z m44.1 0h22c0 1.7 0 43.5 16 77.1h-32.5l5-2.2c-3.9-7.7-8.3-49.6-10.5-74.9z m-132.2 0c0 0.6 0 43-16 74.9l5 2.2h-42.4c20.9-24.2 35.8-73.3 36.4-75.5l-5.5-1.7h22.5zM477 764.7l3.9-3.9c-18.7-18.7-34.2-64.5-36.9-73.3h27.5l-5 2.2c7.7 18.7 23.7 56.7 39.1 74.9H477z m-33-88.1V638h60.6v38.6H444z m33-49.6l3.9-3.9c-18.7-18.7-34.2-64.5-36.9-73.3h27.5l-5 2.2c7.7 18.7 23.7 56.7 39.1 74.9H477z m-33-88.2v-38.6h60.6v38.6H444z m33-49.5l3.9-3.9c-18.7-18.7-34.2-64.5-36.9-73.3h27.5l-5 2.2c7.7 18.7 23.7 56.7 39.1 74.9H477z m-38.5-77.2l-5.5 1.7c0.6 2.2 15.4 51.2 36.4 75.5h-41.9l5-2.2c-16-32-16-74.4-16-74.9h22z m-17.1 77.2h-32.5l5-2.2c-3.9-7.2-8.3-49.6-10.5-74.9h22c0 1.6 0 43.5 16 77.1z m-38.6 0h-43.5v-77.1h38.6l-5.5 0.5c1.1 10.5 5.5 61.1 10.4 76.6z m-54.5 0h-43.5c5.5-15.4 9.9-66.1 10.5-76.6l-5.5-0.5h38.6v77.1z m-49.6 0h-32.5c16-33.6 16-75.5 16-77.1h22c-2.2 25.3-6.6 67.2-10.5 74.9l5 2.2z m-38.6 0h-42.4c20.9-24.2 35.8-73.3 36.4-75.5l-5.5-1.7h22c0 0.5 0 43-16 74.9l5.5 2.3z m-16.5-77.2c-2.8 8.8-17.6 54.5-36.9 73.3l3.9 3.9h-28.1c15.4-18.7 31.4-56.2 39.1-74.9l-5.5-2.2h27.5z m0 137.8c-2.8 8.8-17.6 54.5-36.9 73.3l3.9 3.9h-28.1c15.4-18.7 31.4-56.2 39.1-74.9l-5.5-2.2h27.5z m0 137.7c-2.8 8.8-17.6 54.5-36.9 73.3l3.9 3.9h-28.1c15.4-18.7 31.4-56.2 39.1-74.9l-5.5-2.2h27.5z m0 88.1v49c-1.7 0.5-3.3 0.5-5.5 0.5-15.4 0-47.4-10.5-47.9-10.5-1.7-0.6-3.3-0.6-4.4 0.5-1.7 1.1-2.2 2.2-2.8 3.9v0.6-44.1h60.6zM163 824.8c0 1.7 0.6 3.9 0.6 6.1h-0.6v-6.1z m-0.5 17h4.4c3.3 7.7 8.8 16 18.2 23.1v37.5h-32c2.2-15.4 7.7-47.3 9.4-60.6z m63.9 27.6c40.8-22 41.3-71.1 41.3-71.6h5.5v71.6h-46.8z m35.8 11h143.2V919H262.2v-38.6z m132.2-11v-71.6h5.5c0 0.6 0.5 49.6 41.3 71.6h-46.8z m49.6 11h1.1c10.5-2.2 19.3-5 26.4-8.3v30.3H444v-22z m38.5-15.4c9.4-7.2 14.9-15.4 18.2-23.1h4.4c1.7 13.2 7.2 45.2 9.4 60.6h-32V865z m38.6-100.3c-7.2-0.6-27-36.4-43.5-77.1h32.5l-5 2.2c3.3 6.6 25.3 53.4 49 74.9h-33z m44.1-77.1v27.5c0 1.7 0.5 2.8 1.7 3.9l11 11c1.1 1.1 2.2 1.7 3.9 1.7h16.5c1.1 0 1.7 0 2.2-0.5l25.9-13.2c0.6 12.7-2.2 39.1-34.7 46.8h-15.4c-17.1 0-45.2-46.3-60-77.1h48.9z m-22.1-11h-27.5V638h27.5v38.6z m-22-49.6c-7.2-0.6-27-36.4-43.5-77.1h32.5l-5 2.2c3.3 6.6 25.3 53.4 49 74.9h-33z m44.1-77.1v27.5c0 1.7 0.5 2.8 1.7 3.9l11 11c1.1 1.1 2.2 1.7 3.9 1.7h16.5c1.1 0 1.7 0 2.2-0.5l25.9-13.2c0.6 12.7-2.2 39.1-34.7 46.8h-15.4c-17.1 0-45.2-46.3-60-77.1h48.9z m-22.1-11.1h-27.5v-38.6h27.5v38.6z m-22-49.5c-7.2-0.6-27-36.4-43.5-77.1h32.5l-5 2.2c3.3 6.6 25.3 53.4 49 74.9h-33z m45.7-45.8l11 11c1.1 1.1 2.2 1.7 3.9 1.7h16.5c1.1 0 1.7 0 2.2-0.5l25.9-13.2c0.6 12.7-2.2 39.1-34.7 46.8h-15.4c-17.1 0-45.2-46.3-60-77.1h49v27.5c0 1.6 0.5 2.7 1.6 3.8z m-23.7-42.4h-27.5v-33h27.5v33z m-1.6-61.1c11 3.9 26.4 1.1 36.4-1.7-3.9 7.2-11 16-24.2 18.7h-14.3c-15.4-8.3-28.1-32.5-33.1-44.1h11c2.7 7.2 9.3 22.7 24.2 27.1z m-74.9-27c1.7 9.4 5 30.3 11.6 44.1H444V313h22.6z m-48-78.3l16.5 11c1.1 0.6 2.2 1.1 3.3 1.1h33.1c1.1 0 2.2-0.6 3.3-1.1l12.7-9.4c-2.2 12.7-11 33.1-43 43l2.8-4.4c-39.1-25.9-38-55.1-36.9-67.2h6.1v22c-0.1 2.3 1 3.9 2.1 5z m-19.3-26.4c-2.2 28.1 9.4 52.3 35.3 71.6h-45.7v-71.6h10.4z m-21.4 0v71.6h-16.5v-71.6h16.5z m-60.6 71.6v-71.6h11v71.6h-11z m22-71.6h11v71.6h-11v-71.6z m-5.5-93.7c6.1 0 11 5 11 11 0 6.1-5 11-11 11-6.1 0-11-5-11-11s4.9-11 11-11z m-22 60.6c0-12.1 9.9-22 22-22s22 9.9 22 22-9.9 22-22 22c-12.1 0.1-22-9.8-22-22z m-5.6 33.1v71.6h-16.5v-71.6h16.5z m-27.5 71.6H233c25.9-19.3 37.5-43.5 35.3-71.6h10.5v71.6z m-98.6-43.5l12.7 9.4c1.1 0.6 2.2 1.1 3.3 1.1h33c1.1 0 2.2-0.6 3.3-1.1l16.5-11c1.7-1.1 2.2-2.8 2.2-4.4v-22h6.1c1.1 12.1 2.2 40.8-36.9 67.2l2.8 4.4c-32-10.5-40.8-30.9-43-43.6z m153.7 54.5H433v110.2H234.6V290.9h99.2zM223.6 357h-34.2c6.1-13.8 9.9-34.7 11.6-44.1h22.6V357zM89.7 338.3c10.5 2.8 25.3 5.5 36.4 1.7 14.3-5 21.5-19.8 24.2-27h11c-4.4 11.6-17.6 35.8-33 44.1H114c-13.2-2.8-20.4-11.6-24.3-18.8z m34.7 29.8H152v33h-27.5v-33z m-49 121.2c-32.5-7.7-35.3-33.6-34.7-46.8l25.9 13.2c1.1 0.5 1.7 0.5 2.8 0.5h16.5c1.7 0 2.8-0.5 3.9-1.7l11-11c1.1-1.1 1.7-2.2 1.7-3.9v-27.5h49c-14.9 30.9-43 77.1-60 77.1H75.4z m87.1-75l-5-2.2H190c-16.5 40.8-36.9 76.6-43.5 77.1h-33c23.6-21.4 45.6-68.2 49-74.9z m-38.1 86H152v38.6h-27.5v-38.6zM75.4 627c-32.5-7.7-35.3-33.6-34.7-46.8l25.9 13.2c1.1 0.5 1.7 0.5 2.8 0.5h16.5c1.7 0 2.8-0.5 3.9-1.7l11-11c1.1-1.1 1.7-2.2 1.7-3.9v-27.5h49c-14.9 30.8-43 77.1-60 77.1H75.4z m87.1-74.9l-5-2.2H190c-16.5 40.8-36.9 76.6-43.5 77.1h-33c23.6-21.5 45.6-68.3 49-74.9zM124.4 638H152v38.6h-27.5V638z m-49 126.7c-32.5-7.7-35.3-33.6-34.7-46.8l25.9 13.2c1.1 0.5 1.7 0.5 2.8 0.5h16.5c1.7 0 2.8-0.5 3.9-1.7l11-11c1.1-1.1 1.7-2.2 1.7-3.9v-27.5h49c-14.9 30.9-43 77.1-60 77.1H75.4z m87.1-74.9l-5-2.2H190c-16.5 40.8-36.9 76.6-43.5 77.1h-33c23.6-21.5 45.6-68.3 49-74.9z m-38.1 85.9H152v55.1h-27.5v-55.1z m-98 81.6c10.5 5.5 27 13.8 41.3 17.1 24.8 6.1 43-11.6 43.5-12.7 1.1-1.1 1.7-2.2 1.7-3.9v-16.5h19.8c-7.7 20.4-24.8 56.7-42.4 60.6h-4.4c-44.1 0.5-56.2-28.7-59.5-44.6z m70.5 116.8v-60.6h22v60.6h-22z m33.1 0v-60.6h93.7v60.6H130z m104.6 0v-93.7h16.5v93.7h-16.5z m104.7 0h-77.1V930h143.2v44.1h-66.1z m77.1 0v-93.7h16.5v93.7h-16.5z m27.6 0v-60.6h93.7v60.6H444z m126.7 0h-22v-60.6h22v60.6z m11-71.7h-5c-17.6-3.9-34.7-40.2-42.4-60.6h19.8v16.5c0 1.7 0.6 2.8 1.7 3.9 0.6 0.5 19.3 18.7 43.5 12.7 14.9-3.9 31.4-12.1 41.9-17.1-3.3 15.4-14.9 44.6-59.5 44.6z m0 0" fill="#ED70A3" p-id="5330"></path></svg>